# xmcd CD database file
#
# Track frame offsets:
#	150
#	7725
#	21750
#	36225
#	49800
#	65325
#	79650
#	94125
#	107400
#	120525
#
# Disc length: 1675 seconds
#
# Revision: 3
# Processed by: cddbd v1.5.1PL2 Copyright (c) Steve Scherf et al.
# Submitted via: NeoAudio 9.9.9
#
DISCID=6e06890a
DTITLE=FALSCH - Popp 'n' Punk
DYEAR=2000
DGENRE=Rhythmic Soul
TTITLE0=Falschsong
TTITLE1=Beautiful Life
TTITLE2=4U
TTITLE3=No more
TTITLE4=Green Bob
TTITLE5=Fuck 'em all
TTITLE6=Sometimes
TTITLE7=Song 14
TTITLE8=Wings to fly
TTITLE9=Tschüss
EXTD=YEAR: 2000
EXTT0=
EXTT1=
EXTT2=
EXTT3=
EXTT4=
EXTT5=
EXTT6=
EXTT7=
EXTT8=
EXTT9=
PLAYORDER=
